<svg width="28" height="26" viewBox="0 0 28 26" fill="none" xmlns="http://www.w3.org/2000/svg">
<g filter="url(#filter0_d_6178_274)">
<path d="M14 6.75C12.9616 6.75 11.9466 7.05791 11.0833 7.63478C10.2199 8.21166 9.54699 9.0316 9.14963 9.99091C8.75227 10.9502 8.64831 12.0058 8.85088 13.0242C9.05345 14.0426 9.55346 14.9781 10.2877 15.7123C11.0219 16.4465 11.9574 16.9466 12.9758 17.1491C13.9942 17.3517 15.0498 17.2477 16.0091 16.8504C16.9684 16.453 17.7883 15.7801 18.3652 14.9167C18.9421 14.0534 19.25 13.0384 19.25 12C19.2486 10.6081 18.695 9.27354 17.7107 8.28929C16.7265 7.30504 15.3919 6.75145 14 6.75ZM14 15.5C13.3078 15.5 12.6311 15.2947 12.0555 14.9101C11.4799 14.5256 11.0313 13.9789 10.7664 13.3394C10.5015 12.6999 10.4322 11.9961 10.5673 11.3172C10.7023 10.6383 11.0356 10.0146 11.5251 9.52513C12.0146 9.03564 12.6383 8.7023 13.3172 8.56725C13.9961 8.4322 14.6999 8.50151 15.3394 8.76642C15.9789 9.03133 16.5256 9.47993 16.9101 10.0555C17.2947 10.6311 17.5 11.3078 17.5 12C17.5 12.9283 17.1313 13.8185 16.4749 14.4749C15.8185 15.1313 14.9283 15.5 14 15.5ZM19.25 0.625H8.75C7.12608 0.626737 5.56917 1.27261 4.42089 2.42089C3.27261 3.56917 2.62674 5.12608 2.625 6.75V17.25C2.62674 18.8739 3.27261 20.4308 4.42089 21.5791C5.56917 22.7274 7.12608 23.3733 8.75 23.375H19.25C20.8739 23.3733 22.4308 22.7274 23.5791 21.5791C24.7274 20.4308 25.3733 18.8739 25.375 17.25V6.75C25.3733 5.12608 24.7274 3.56917 23.5791 2.42089C22.4308 1.27261 20.8739 0.626737 19.25 0.625ZM23.625 17.25C23.625 18.4103 23.1641 19.5231 22.3436 20.3436C21.5231 21.1641 20.4103 21.625 19.25 21.625H8.75C7.58968 21.625 6.47688 21.1641 5.65641 20.3436C4.83594 19.5231 4.375 18.4103 4.375 17.25V6.75C4.375 5.58968 4.83594 4.47688 5.65641 3.65641C6.47688 2.83594 7.58968 2.375 8.75 2.375H19.25C20.4103 2.375 21.5231 2.83594 22.3436 3.65641C23.1641 4.47688 23.625 5.58968 23.625 6.75V17.25ZM21 6.3125C21 6.57209 20.923 6.82585 20.7788 7.04169C20.6346 7.25753 20.4296 7.42575 20.1898 7.52509C19.9499 7.62443 19.686 7.65042 19.4314 7.59978C19.1768 7.54914 18.943 7.42413 18.7594 7.24058C18.5759 7.05702 18.4509 6.82316 18.4002 6.56856C18.3496 6.31396 18.3756 6.05006 18.4749 5.81023C18.5742 5.5704 18.7425 5.36542 18.9583 5.2212C19.1742 5.07698 19.4279 5 19.6875 5C20.0356 5 20.3694 5.13828 20.6156 5.38442C20.8617 5.63056 21 5.9644 21 6.3125Z" fill="#878EA1"/>
</g>
<defs>
<filter id="filter0_d_6178_274" x="-1.375" y="0.625" width="30.75" height="30.75" filterUnits="userSpaceOnUse" color-interpolation-filters="sRGB">
<feFlood flood-opacity="0" result="BackgroundImageFix"/>
<feColorMatrix in="SourceAlpha" type="matrix" values="0 0 0 0 0 0 0 0 0 0 0 0 0 0 0 0 0 0 127 0" result="hardAlpha"/>
<feOffset dy="4"/>
<feGaussianBlur stdDeviation="2"/>
<feComposite in2="hardAlpha" operator="out"/>
<feColorMatrix type="matrix" values="0 0 0 0 0 0 0 0 0 0 0 0 0 0 0 0 0 0 0.25 0"/>
<feBlend mode="normal" in2="BackgroundImageFix" result="effect1_dropShadow_6178_274"/>
<feBlend mode="normal" in="SourceGraphic" in2="effect1_dropShadow_6178_274" result="shape"/>
</filter>
</defs>
</svg>
